#N canvas 0 69 1920 1011 12;
#X obj 698 70 print;
#X obj 580 16 netreceive 8080;
#X msg 1642 11 \; pd dsp 0;
#N canvas 0 0 450 300 (subpatch) 0;
#X array array99 33494 float 0;
#X coords 0 1 33493 -1 250 200 1;
#X restore 1439 243 graph;
#X floatatom 106 529 0 0 0 0 - - -;
#X msg -12 401 set array99;
#X obj 84 467 tabplay~ array99;
#X obj 1463 156 soundfiler;
#X floatatom 1463 178 0 0 0 0 - - -;
#X obj 106 503 env~ 16384;
#X obj 125 673 *~;
#X msg 83 321 bang;
#X msg 103 443 stop;
#X obj 517 811 output~;
#X msg 1463 122 read -resize ./snare.wav array99 \; pd dsp 1 \;;
#X msg 172 369 -1, f 4;
#X obj 269 595 tabwrite~ array10;
#N canvas 0 0 450 300 (subpatch) 0;
#X array array10 33494 float 0;
#X coords 0 1 33493 -1 250 200 1 0 0;
#X restore 1442 478 graph;
#X obj 247 433 adsr 1 10 70 300;
#X obj 1614 61 loadbang;
#X obj 138 119 unpack f f;
#X floatatom 106 158 5 0 0 0 - - -;
#X floatatom 175 161 5 0 0 0 - - -;
#X obj 65 160 t b;
#N canvas 0 0 450 300 (subpatch) 0;
#X array array98 68738 float 0;
#X coords 0 1 68737 -1 250 200 1 0 0;
#X restore 1726 239 graph;
#X obj 1736 157 soundfiler;
#X floatatom 1736 179 0 0 0 0 - - -;
#X msg 1736 123 read -resize ./kick.wav array98 \; pd dsp 1 \;;
#X floatatom 545 535 0 0 0 0 - - -;
#X obj 545 509 env~ 16384;
#X obj 527 651 *~;
#X msg 528 326 bang;
#X msg 542 449 stop;
#X msg 611 375 -1, f 4;
#X obj 686 439 adsr 1 10 70 300;
#X obj 577 125 unpack f f;
#X floatatom 545 164 5 0 0 0 - - -;
#X floatatom 614 167 5 0 0 0 - - -;
#X obj 504 155 t b;
#N canvas 0 0 450 300 (subpatch) 0;
#X array array11 33494 float 0;
#X coords 0 1 33493 -1 250 200 1 0 0;
#X restore 1748 482 graph;
#X obj 727 557 tabwrite~ array11;
#X msg 427 407 set array98;
#N canvas 0 0 450 300 (subpatch) 0;
#X array array97 19641 float 0;
#X coords 0 1 19640 -1 250 200 1 0 0;
#X restore 2027 224 graph;
#N canvas 0 0 450 300 (subpatch) 0;
#X array array12 33494 float 0;
#X coords 0 1 33493 -1 250 200 1 0 0;
#X restore 2050 467 graph;
#X obj 2033 155 soundfiler;
#X floatatom 2033 177 0 0 0 0 - - -;
#X msg 2033 121 read -resize ./hi_hat.wav array97 \; pd dsp 1 \;;
#X floatatom 994 557 0 0 0 0 - - -;
#X obj 994 531 env~ 16384;
#X obj 976 673 *~;
#X msg 977 348 bang;
#X msg 991 471 stop;
#X msg 1060 397 -1, f 4;
#X obj 1135 461 adsr 1 10 70 300;
#X obj 1026 147 unpack f f;
#X floatatom 994 186 5 0 0 0 - - -;
#X floatatom 1063 189 5 0 0 0 - - -;
#X obj 953 177 t b;
#X obj 561 71 route 0 1 2;
#X msg 876 429 set array97;
#X obj 523 473 tabplay~ array98;
#X obj 972 495 tabplay~ array97;
#X obj 1176 579 tabwrite~ array12;
#X connect 1 0 0 0;
#X connect 1 0 58 0;
#X connect 5 0 6 0;
#X connect 6 0 9 0;
#X connect 6 0 10 0;
#X connect 7 0 8 0;
#X connect 9 0 4 0;
#X connect 10 0 13 0;
#X connect 10 0 13 1;
#X connect 10 0 16 0;
#X connect 11 0 6 0;
#X connect 11 0 15 0;
#X connect 11 0 16 0;
#X connect 12 0 6 0;
#X connect 14 0 7 0;
#X connect 15 0 18 0;
#X connect 18 0 10 1;
#X connect 19 0 14 0;
#X connect 19 0 27 0;
#X connect 19 0 46 0;
#X connect 20 0 18 1;
#X connect 20 0 21 0;
#X connect 20 1 18 4;
#X connect 20 1 22 0;
#X connect 23 0 11 0;
#X connect 25 0 26 0;
#X connect 27 0 25 0;
#X connect 29 0 28 0;
#X connect 30 0 40 0;
#X connect 30 0 13 1;
#X connect 30 0 13 0;
#X connect 31 0 33 0;
#X connect 31 0 40 0;
#X connect 31 0 60 0;
#X connect 32 0 60 0;
#X connect 33 0 34 0;
#X connect 34 0 30 1;
#X connect 35 0 34 1;
#X connect 35 0 36 0;
#X connect 35 1 34 4;
#X connect 35 1 37 0;
#X connect 38 0 31 0;
#X connect 41 0 60 0;
#X connect 44 0 45 0;
#X connect 46 0 44 0;
#X connect 48 0 47 0;
#X connect 49 0 62 0;
#X connect 49 0 13 0;
#X connect 49 0 13 1;
#X connect 50 0 52 0;
#X connect 50 0 61 0;
#X connect 50 0 62 0;
#X connect 51 0 61 0;
#X connect 52 0 53 0;
#X connect 53 0 49 1;
#X connect 54 0 53 1;
#X connect 54 0 55 0;
#X connect 54 1 53 4;
#X connect 54 1 56 0;
#X connect 57 0 50 0;
#X connect 58 0 20 0;
#X connect 58 0 23 0;
#X connect 58 1 35 0;
#X connect 58 1 38 0;
#X connect 58 2 54 0;
#X connect 58 2 57 0;
#X connect 59 0 61 0;
#X connect 60 0 29 0;
#X connect 60 0 30 0;
#X connect 61 0 48 0;
#X connect 61 0 49 0;
