#N canvas 522 69 960 1011 12;
#X floatatom 171 134 5 0 0 0 - - -;
#X obj 156 96 route 0 1 2 3;
#X obj 275 75 print;
#X obj 131 46 netreceive 8080;
#X msg 696 275 \; pd dsp 0;
#N canvas 0 0 450 300 (subpatch) 0;
#X array array99 33494 float 0;
#X coords 0 1 33493 -1 250 200 1;
#X restore 485 351 graph;
#X floatatom 90 472 0 0 0 0 - - -;
#X msg 68 280 set array99;
#X obj 68 410 tabplay~ array99;
#X obj 509 264 soundfiler;
#X floatatom 509 286 0 0 0 0 - - -;
#X obj 90 446 env~ 16384;
#X obj 132 705 *~;
#X msg 88 320 bang;
#X msg 87 386 stop;
#X obj 132 763 output~;
#X msg 509 230 read -resize ./snare.wav array99 \; pd dsp 1 \;;
#X msg 172 369 1, f 4;
#X obj 227 423 adsr 1 10 70 300;
#X floatatom 351 369 5 0 0 0 - - -;
#X floatatom 248 371 5 0 0 0 - - -;
#X floatatom 297 370 5 0 0 0 - - -;
#X floatatom 410 369 5 0 0 0 - - -;
#X obj 248 228 vsl 15 128 0 1000 0 0 empty empty empty 0 -9 0 10 -262144
-1 -1 3600 1;
#X obj 296 227 vsl 15 128 0 1000 0 0 empty empty empty 0 -9 0 10 -262144
-1 -1 3300 1;
#X obj 349 220 vsl 15 128 0 100 0 0 empty empty empty 0 -9 0 10 -262144
-1 -1 12300 1;
#X obj 407 223 vsl 15 128 0 1000 0 0 empty empty empty 0 -9 0 10 -262144
-1 -1 3500 1;
#X obj 445 141 tgl 15 0 empty empty empty 17 7 0 10 -262144 -1 -1 0
1;
#X floatatom 446 96 5 0 0 0 - - -;
#X floatatom 207 370 5 0 0 0 - - -;
#X obj 207 227 vsl 15 128 0 10 0 0 empty empty empty 0 -9 0 10 -262144
-1 -1 2700 1;
#X connect 1 0 0 0;
#X connect 3 0 1 0;
#X connect 3 0 2 0;
#X connect 3 0 13 0;
#X connect 7 0 8 0;
#X connect 8 0 11 0;
#X connect 8 0 12 0;
#X connect 9 0 10 0;
#X connect 11 0 6 0;
#X connect 12 0 15 0;
#X connect 12 0 15 1;
#X connect 13 0 8 0;
#X connect 13 0 17 0;
#X connect 14 0 8 0;
#X connect 16 0 9 0;
#X connect 17 0 18 0;
#X connect 18 0 12 1;
#X connect 19 0 18 4;
#X connect 20 0 18 2;
#X connect 21 0 18 3;
#X connect 22 0 18 5;
#X connect 23 0 20 0;
#X connect 24 0 21 0;
#X connect 25 0 19 0;
#X connect 26 0 22 0;
#X connect 28 0 27 0;
#X connect 29 0 18 1;
#X connect 30 0 29 0;
