#N canvas 592 127 964 901 12;
#X floatatom 83 133 5 0 0 0 - - -;
#X obj 275 75 print;
#X obj 131 46 netreceive 8080;
#X msg 696 275 \; pd dsp 0;
#N canvas 0 0 450 300 (subpatch) 0;
#X array array99 33494 float 0;
#X coords 0 1 33493 -1 250 200 1;
#X restore 485 351 graph;
#X floatatom 106 529 0 0 0 0 - - -;
#X msg 16 268 set array99;
#X obj 84 467 tabplay~ array99;
#X obj 509 264 soundfiler;
#X floatatom 509 286 0 0 0 0 - - -;
#X obj 106 503 env~ 16384;
#X obj 132 705 *~;
#X msg 88 320 bang;
#X msg 103 443 stop;
#X obj 132 763 output~;
#X msg 509 230 read -resize ./snare.wav array99 \; pd dsp 1 \;;
#X floatatom 288 275 5 0 0 0 - - -;
#X floatatom 340 307 5 0 0 0 - - -;
#X floatatom 394 333 5 0 0 0 - - -;
#X obj 288 132 vsl 15 128 0 1000 0 0 empty empty empty 0 -9 0 10 -262144
-1 -1 1700 1;
#X obj 339 164 vsl 15 128 0 1000 0 0 empty empty empty 0 -9 0 10 -262144
-1 -1 4400 1;
#X obj 391 187 vsl 15 128 0 1000 0 0 empty empty empty 0 -9 0 10 -262144
-1 -1 12700 1;
#X msg 172 369 -1, f 4;
#X obj 322 572 tabwrite~ array10;
#N canvas 0 0 450 300 (subpatch) 0;
#X array array10 33494 float 0;
#X coords 0 1 33493 -1 250 200 1 0 0;
#X restore 488 586 graph;
#X obj 247 433 adsr 1 10 70 300;
#X obj 509 183 loadbang;
#X floatatom 161 164 5 0 0 0 - - -;
#X floatatom 233 131 5 0 0 0 - - -;
#X obj 162 91 route 0 1 2;
#X connect 2 0 1 0;
#X connect 2 0 29 0;
#X connect 6 0 7 0;
#X connect 7 0 10 0;
#X connect 7 0 11 0;
#X connect 8 0 9 0;
#X connect 10 0 5 0;
#X connect 11 0 14 0;
#X connect 11 0 14 1;
#X connect 11 0 23 0;
#X connect 12 0 7 0;
#X connect 12 0 22 0;
#X connect 12 0 23 0;
#X connect 13 0 7 0;
#X connect 15 0 8 0;
#X connect 16 0 25 2;
#X connect 17 0 25 3;
#X connect 18 0 25 5;
#X connect 19 0 16 0;
#X connect 20 0 17 0;
#X connect 21 0 18 0;
#X connect 22 0 25 0;
#X connect 25 0 11 1;
#X connect 26 0 15 0;
#X connect 29 0 0 0;
#X connect 29 0 12 0;
#X connect 29 1 25 1;
#X connect 29 1 27 0;
#X connect 29 2 25 4;
#X connect 29 2 28 0;
