#N canvas 592 127 964 901 12;
#X obj 275 75 print;
#X obj 157 21 netreceive 8080;
#X msg 696 275 \; pd dsp 0;
#N canvas 0 0 450 300 (subpatch) 0;
#X array array99 33494 float 0;
#X coords 0 1 33493 -1 250 200 1;
#X restore 485 351 graph;
#X floatatom 106 529 0 0 0 0 - - -;
#X msg -12 401 set array99;
#X obj 84 467 tabplay~ array99;
#X obj 509 264 soundfiler;
#X floatatom 509 286 0 0 0 0 - - -;
#X obj 106 503 env~ 16384;
#X obj 132 705 *~;
#X msg 83 321 bang;
#X msg 103 443 stop;
#X obj 132 763 output~;
#X msg 509 230 read -resize ./snare.wav array99 \; pd dsp 1 \;;
#X floatatom 288 275 5 0 0 0 - - -;
#X floatatom 340 307 5 0 0 0 - - -;
#X floatatom 394 333 5 0 0 0 - - -;
#X obj 288 132 vsl 15 128 0 1000 0 0 empty empty empty 0 -9 0 10 -262144
-1 -1 0 1;
#X obj 339 164 vsl 15 128 0 1000 0 0 empty empty empty 0 -9 0 10 -262144
-1 -1 0 1;
#X obj 391 187 vsl 15 128 0 1000 0 0 empty empty empty 0 -9 0 10 -262144
-1 -1 0 1;
#X msg 172 369 -1, f 4;
#X obj 322 572 tabwrite~ array10;
#N canvas 0 0 450 300 (subpatch) 0;
#X array array10 33494 float 0;
#X coords 0 1 33493 -1 250 200 1 0 0;
#X restore 488 586 graph;
#X obj 247 433 adsr 1 10 70 300;
#X obj 509 183 loadbang;
#X obj 138 76 route 0 1;
#X obj 138 119 unpack f f;
#X floatatom 106 158 5 0 0 0 - - -;
#X floatatom 175 161 5 0 0 0 - - -;
#X obj 65 160 t b;
#X connect 1 0 0 0;
#X connect 1 0 26 0;
#X connect 5 0 6 0;
#X connect 6 0 9 0;
#X connect 6 0 10 0;
#X connect 7 0 8 0;
#X connect 9 0 4 0;
#X connect 10 0 13 0;
#X connect 10 0 13 1;
#X connect 10 0 22 0;
#X connect 11 0 6 0;
#X connect 11 0 21 0;
#X connect 11 0 22 0;
#X connect 12 0 6 0;
#X connect 14 0 7 0;
#X connect 15 0 24 2;
#X connect 16 0 24 3;
#X connect 17 0 24 5;
#X connect 18 0 15 0;
#X connect 19 0 16 0;
#X connect 20 0 17 0;
#X connect 21 0 24 0;
#X connect 24 0 10 1;
#X connect 25 0 14 0;
#X connect 26 0 27 0;
#X connect 26 0 30 0;
#X connect 27 0 24 1;
#X connect 27 0 28 0;
#X connect 27 1 24 4;
#X connect 27 1 29 0;
#X connect 30 0 11 0;
